<svg height="512" viewBox="0 0 60 60" width="512" xmlns="http://www.w3.org/2000/svg"><g id="Page-1" fill="none" fill-rule="evenodd"><g id="022---Fry-Up" fill="rgb(0,0,0)" fill-rule="nonzero"><path id="Shape" d="m36 0c-8.5067449-.00485662-16.3796865 4.49632662-20.6909987 11.8296288-4.3113121 7.3333022-4.4159503 16.4015385-.2750013 23.8323712l-1.383 2.3c-1.3017628 2.1724149-2.8662136 4.1761747-4.658 5.966l-7.823 7.828c-1.55388334 1.5671069-1.55388334 4.0938931 0 5.661l1.41 1.41c1.56745925 1.5558675 4.09654075 1.5558675 5.664 0l7.82-7.82c1.7903611-1.7922991 3.7948055-3.3570958 5.968-4.659l2.3-1.382c8.7761522 4.8892046 19.6687966 3.7949995 27.2971362-2.742095s10.3779798-17.1336253 6.8906411-26.555071c-3.4873387-9.42144562-12.4736266-15.67393438-22.5197773-15.668834zm-14.993 44.632c-2.3137497 1.3863741-4.4478329 3.052598-6.354 4.961l-7.817 7.817c-.78567395.7798393-2.05332605.7798393-2.839 0l-1.41-1.41c-.77731333-.7855442-.77731333-2.0504558 0-2.836l7.82-7.82c1.9078892-1.9056312 3.5737673-4.0390299 4.96-6.352l.854-1.423c1.672921 2.4304129 3.7765871 4.534079 6.207 6.207zm14.993 1.368c-12.1502645 0-22-9.8497355-22-22s9.8497355-22 22-22 22 9.8497355 22 22c-.0137772 12.1445532-9.8554468 21.9862228-22 22z"/><path id="Shape" d="m36 4c-11.045695 0-20 8.954305-20 20s8.954305 20 20 20 20-8.954305 20-20c-.0126747-11.0404407-8.9595593-19.98732534-20-20zm0 38c-9.9411255 0-18-8.0588745-18-18s8.0588745-18 18-18 18 8.0588745 18 18c-.0115721 9.9363282-8.0636718 17.9884279-18 18z"/><path id="Shape" d="m6.829 51.757-2.122 2.122c-.25995658.2510745-.3642126.6228779-.27269716.9725073.09151544.3496295.3645604.6226744.71418984.7141899.34962943.0915154.72143285-.0127406.97250732-.2726972l2.122-2.122c.37897221-.3923789.37355237-1.0160848-.01218142-1.4018186-.3857338-.3857338-1.00943969-.3911536-1.40181858-.0121814z"/><path id="Shape" d="m33.576 15.007c-3.0375661 0-5.5 2.4624339-5.5 5.5s2.4624339 5.5 5.5 5.5 5.5-2.4624339 5.5-5.5c-.0033068-3.0361953-2.4638047-5.4966932-5.5-5.5zm0 9c-1.9329966 0-3.5-1.5670034-3.5-3.5s1.5670034-3.5 3.5-3.5 3.5 1.5670034 3.5 3.5-1.5670034 3.5-3.5 3.5z"/><path id="Shape" d="m45.6 23.343c-.467.546-.956 1.07-1.46 1.575.4779871-1.0670469.7854002-2.202552.911-3.365 0-.014.009-.1.01-.113.0872642-3.906949-2.0272031-7.5318053-5.471-9.379-2.124-1.152-4.627-1.091-6.838-1.039l-.335.008c-1.7229578-.0580575-3.4344588.3007779-4.989 1.046-1.3474183.8780261-2.4514991 2.0818525-3.21 3.5-.3341384.4892961-.7080732.9501926-1.118 1.378-.822816.8052572-1.4664977 1.7750392-1.889 2.846-.694 2.092.465 3.7 1.4 5l.274.382c.567.811 1.065 1.668 1.479 2.4.152.269.285.551.418.832.2431711.5548188.539204 1.084932.884 1.583 1.619 2.225 4.054 1.9 6.01 1.637.6614034-.1068254 1.3300393-.1626564 2-.167-.574.2-1.152.384-1.741.544-1.3597259.3271222-2.4337799 1.3681379-2.8032112 2.7169833-.3694312 1.3488454.0242785 2.7918625 1.0275567 3.7661808s2.4572051 1.3256052 3.7946545.9168359c6.8071068-1.851024 12.8974485-5.7125969 17.475-11.08.9300777-1.0362792 1.2257425-2.4951076.7725361-3.8117408s-1.5841451-2.2844017-2.9550049-2.528661c-1.3708598-.2442592-2.7664592.2733316-3.6465312 1.3524018zm-10.127 6.344c-.35-.064-.7-.128-1.046-.178-1.0080914-.0906292-2.0237786-.0458986-3.02.133-1.99.266-3.254.371-4.13-.833-.2686088-.3983693-.5002392-.8204588-.692-1.261-.154-.325-.309-.65-.484-.96-.436-.772-.966-1.681-1.583-2.564l-.288-.4c-.929-1.291-1.468-2.15-1.123-3.192.3474168-.8049315.8519297-1.5324636 1.484-2.14.4851052-.5121812.9260107-1.0644839 1.318-1.651.5861624-1.126239 1.4389511-2.0919776 2.484-2.813 1.2761334-.5791098 2.6696164-.853013 4.07-.8l.334-.008c2.057-.048 4.182-.1 5.832.8 2.753492 1.485181 4.4595687 4.3716178 4.433 7.5l-.008.1c-.1934487 1.3820504-.6406233 2.7164547-1.319 3.936l-.3.622c-.3434128.7371012-.7311215 1.4527428-1.161 2.143-.9585478.6633044-1.9585948 1.264535-2.994 1.8-.6073713-.0323329-1.2114273-.110556-1.807-.234zm14.235-5.246c.138511.1195131.2587855.2586542.357.413.4341169.6805787.3707212 1.5652733-.156 2.177-4.3202982 5.0613091-10.0669866 8.7015638-16.489 10.445-.97027.2441471-1.9574927-.3330754-2.2206075-1.2983745-.2631148-.965299.2946502-1.9636441 1.2546075-2.2456255 1.8581176-.5121553 3.6617-1.2047845 5.385-2.068.0701955-.0257515.1372815-.0592945.2-.1 1.1824212-.6002913 2.3227112-1.2801888 3.413-2.035.0608145-.0326007.1178291-.0718401.17-.117 2.0353945-1.4198795 3.8833453-3.091099 5.5-4.974.6611822-.7688874 1.819652-.85831 2.591-.2z"/></g></g></svg>