<svg id="Capa_1" enable-background="new 0 0 510 510" height="512" viewBox="0 0 510 510" width="512" xmlns="http://www.w3.org/2000/svg"><path d="m389.97 436.97-45.36-233.23c11.71-6.94 19.57-19.71 19.57-34.271v-16.79c0-9.45-3.31-18.15-8.84-24.98 32.036-59.178-19.631-127.699-100.34-127.699-81.886 0-132.73 69.92-99.78 128.72-5.03 6.67-8.03 14.97-8.03 23.96v16.79c0 14.05 7.32 26.43 18.35 33.521l-45.51 233.979c-7.37 37.877 21.656 73.03 60.2 73.03h149.54c38.584 0 67.562-35.192 60.2-73.03zm-134.97-406.97c56.719 0 95.026 43.72 74.1 83.14-3.211-.371-142.692-.628-148.11.17-21.325-39.921 17.813-83.31 74.01-83.31zm79.18 123.49v15.979c0 5.34-4.28 9.7-9.6 9.82-147.341 0-137.993.059-139.13-.12-4.68-.75-8.26-4.82-8.26-9.7 0-6.912 0-9.843 0-16.79 0-5.333 4.319-9.82 9.82-9.82h137.35c4.795.001 9.82 3.518 9.82 10.631zm-4.41 326.51h-149.54c-19.704 0-34.524-17.979-30.75-37.31l45.39-233.4h120.26l45.39 233.4c3.778 19.347-11.061 37.31-30.75 37.31z"/><path d="m255 71.61c8.28 0 15-6.71 15-15v-2.57c0-8.28-6.72-15-15-15s-15 6.72-15 15v2.57c0 8.29 6.72 15 15 15z"/><path d="m211.08 91.9c8.28 0 15-6.71 15-15v-2.57c0-8.28-6.72-15-15-15-8.29 0-15 6.72-15 15v2.57c0 8.29 6.71 15 15 15z"/><path d="m298.92 91.9c8.29 0 15-6.71 15-15v-2.57c0-8.28-6.71-15-15-15-8.28 0-15 6.72-15 15v2.57c0 8.29 6.72 15 15 15z"/><path d="m227.139 268.061c-8.241-.746-15.543 5.339-16.289 13.589l-10.571 117c-.745 8.25 5.339 15.543 13.59 16.289.459.042.915.062 1.367.062 7.674 0 14.218-5.86 14.922-13.651l10.571-117c.745-8.251-5.339-15.544-13.59-16.289z"/><path d="m299.15 281.65c-.746-8.251-8.033-14.33-16.289-13.589-8.251.745-14.335 8.038-13.59 16.289l10.571 117c.704 7.792 7.247 13.651 14.922 13.651.452 0 .908-.021 1.367-.062 8.251-.745 14.335-8.038 13.59-16.289z"/></svg>